<?xml version="1.0" encoding="utf-8"?>
<!-- Generator: Adobe Adobe Illustrator 24.2.0, SVG Export Plug-In . SVG Version: 6.00 Build 0)  -->
<svg version="1.1" id="Layer_1" xmlns="http://www.w3.org/2000/svg" xmlns:xlink="http://www.w3.org/1999/xlink" x="0px" y="0px"
	 width="54px" height="45.5px" viewBox="0 0 54 45.5" style="enable-background:new 0 0 54 45.5;" xml:space="preserve">
<style type="text/css">
	.st0{fill:#FFFEF2;}
	.st1{fill:#3C3655;}
</style>
<g>
	<path class="st0" d="M33.3,14.33c-0.97-0.73-2.01-1.36-3.19-1.71c-1.53-0.45-3.1-0.54-4.66-0.04l-0.01,0
		c-0.28,0.09-0.28,0.45-0.01,0.55c0.66,0.24,1.26,0.57,1.82,0.98c1.62,1.19,2.57,2.79,2.98,4.64c0.13,0.58,0.35,0.89,0.9,1.09
		c0.82,0.3,1.12,0.96,0.85,1.74c-0.1,0.27-0.2,0.54-0.38,0.78c-0.49,0.64-0.94,1.31-1.44,1.95c-0.28,0.36-0.26,0.65,0.11,0.93
		c0.17,0.12,0.31,0.28,0.49,0.38c0.17,0.09,0.38,0.13,0.32,0.37c-0.06,0.25-0.27,0.25-0.5,0.26c-0.55,0.01-0.49,0.49-0.61,0.78
		c-0.12,0.29,0.17,0.41,0.42,0.46c0.39,0.08,0.59,0.31,0.64,0.67c0.05,0.34,0.09,0.68,0.14,1.02c0.02,0.17-0.01,0.34-0.23,0.37
		c-0.2,0.03-0.32-0.1-0.38-0.26c-0.06-0.17-0.11-0.35-0.15-0.52c-0.07-0.29-0.29-0.41-0.57-0.46c-0.18-0.03-0.24,0.09-0.27,0.22
		c-0.06,0.27,0.06,0.45,0.3,0.58c0.07,0.04,0.14,0.06,0.2,0.1c0.2,0.13,0.28,0.3,0.19,0.51c-0.09,0.23-0.3,0.21-0.5,0.14
		c-0.23-0.08-0.48,0-0.61,0.19c-0.71,1.05-1.75,1.66-3.02,1.97c-0.93,0.23-1.88,0.36-2.85,0.27l-0.02,0
		c-0.39-0.04-0.57,0.44-0.24,0.64c1.04,0.62,2.17,1.07,3.49,1.19c1.92,0.18,3.75-0.05,5.4-0.98c2.73-1.53,4.48-3.76,5.27-6.65
		c0.79-2.88,0.55-5.66-0.78-8.38C35.7,16.6,34.67,15.35,33.3,14.33z M36.18,22.89c-0.2,0.36-0.55,0.17-0.8,0.02
		c-0.53-0.3-0.98-0.51-1.72-0.71c-0.25-0.12-0.59-0.15-0.46-0.48c0.12-0.29,0.4-0.28,0.69-0.18c0.51,0.17,1.49,0.4,1.89,0.63
		C36.08,22.36,36.36,22.56,36.18,22.89z"/>
	<path class="st0" d="M30.79,20.67c-0.32,0.49-0.05,0.92,0.06,1.43C31.7,21.3,31.57,20.83,30.79,20.67z"/>
	<path class="st1" d="M42.42,22.43c-0.66-0.19-1.33-0.31-1.93-0.67c-1.44-0.89-1.73-2.91-0.31-3.94c0.3-0.22,0.63-0.42,0.96-0.6
		c0.24-0.13,0.33-0.3,0.26-0.54c-0.07-0.25-0.29-0.32-0.54-0.32c-0.48,0-0.97,0.08-1.45-0.01c-0.63-0.11-1.35-0.52-1.65-1
		c-0.34-0.57-0.27-1.06-0.11-1.6c0.22-0.76,0.53-1.33,0.9-1.96c0.14-0.24,0.35-0.54,0.02-0.78c-0.33-0.24-0.67-0.09-0.95,0.11
		c-0.51,0.37-1.09,0.61-1.67,0.85c-0.77,0.32-1.51,0.04-1.97-0.64c-0.61-0.9-0.46-1.94-0.75-2.9c-0.12-0.4-0.23-0.75-0.65-0.85
		c-0.38-0.09-0.61,0.22-0.82,0.48c-0.51,0.64-0.94,1.35-1.6,1.89c-0.56,0.45-1.14,0.37-1.55-0.18c-0.52-0.7-0.76-1.52-1.15-2.28
		c-0.22-0.42-0.38-0.79-0.96-0.75c-0.54,0.03-0.65,0.42-0.79,0.8c-0.29,0.78-0.42,1.42-0.74,2.18c-0.13,0.31-0.46,0.77-0.9,0.82
		c-0.41,0.05-0.63-0.18-0.84-0.46c-0.17-0.23-0.33-0.56-0.69-0.49c-0.74,0.14-0.39,3.41-2.91,1.91c-0.75-0.45-1.36-1.05-2.05-1.56
		c-0.2-0.15-0.39-0.22-0.63-0.09c-0.23,0.13-0.31,0.32-0.27,0.55c0.02,0.14,0.07,0.28,0.13,0.41c0.21,0.46,0.42,0.93,0.64,1.4
		c0.24,0.53,0.41,1.09,0.45,1.67c0.02,0.31,0.02,0.63-0.06,0.95c-0.22,0.96-1.06,1.78-2.08,1.99c-0.69,0.14-1.34-0.05-2.01-0.1
		c-0.3-0.02-0.62-0.06-0.76,0.22c-0.14,0.28,0.13,0.48,0.35,0.62c0.52,0.34,1,0.73,1.42,1.17c0.48,0.51,0.7,1.09,0.57,1.83
		c-0.38,2.17-3.48,2.68-4.05,3.08c-0.16,0.11-0.3,0.24-0.26,0.44c0.04,0.22,0.21,0.35,0.42,0.43c0.23,0.09,0.35,0.1,0.52,0.12
		c3.02,0.5,5.01,4.89,1.9,7.23c-0.22,0.17-0.6,0.39-0.33,0.76c0.22,0.31,0.56,0.25,0.89,0.13c0.36-0.13,0.7-0.3,1.08-0.39
		c2.53-0.56,4.43,1.93,3.45,4.44c-0.09,0.23-0.04,0.44,0.19,0.57c0.26,0.15,0.44-0.04,0.61-0.18c0.35-0.31,0.67-0.65,1.03-0.94
		c2.74-2.15,5.01,0.27,5.3,1.94c0.05,0.3,0.25,0.52,0.55,0.55c0.3,0.02,0.46-0.24,0.54-0.48c0.16-0.48,0.26-2.3,1.8-2.66
		c0.56-0.13,1.15,0.01,1.6,0.35c0.25,0.19,0.47,0.41,0.67,0.64c0.16,0.18,0.31,0.38,0.62,0.31c0.29-0.07,0.32-0.31,0.38-0.52
		c0.05-0.19,0.1-0.38,0.14-0.57c0.16-0.83,0.37-1.01,1.19-0.9c0.44,0.06,0.66-0.08,0.68-0.5c0.02-0.36,0.07-0.71,0.12-1.07
		c0.08-0.58,0.58-0.81,1.13-0.52c0.56,0.29,1.05,0.67,1.5,1.09c0.26,0.25,0.58,0.46,0.91,0.2c0.3-0.23,0.2-0.59,0.05-0.89
		c-0.18-0.36-0.41-0.69-0.58-1.05c-0.5-1.09-0.56-2.1,0.84-2.1c0.82,0,0.82-0.33,0.43-1.02c-0.07-0.13-0.16-0.26-0.06-0.4
		c0.12-0.17,0.31-0.12,0.47-0.1c0.27,0.04,0.53,0.12,0.8,0.09c0.48-0.04,0.62-0.27,0.38-0.65c-0.2-0.31-0.43-0.59-0.65-0.88
		c-0.9-1.15-0.38-2.55,0.8-3.09c0.65-0.3,1.36-0.37,2.04-0.56c0.29-0.08,0.58-0.17,0.58-0.51C43,22.62,42.71,22.52,42.42,22.43z
		 M37.22,26.49c-0.79,2.89-2.54,5.12-5.27,6.65c-1.65,0.93-3.48,1.15-5.4,0.98c-1.32-0.12-2.45-0.57-3.49-1.19
		c-0.33-0.2-0.15-0.68,0.24-0.64l0.02,0c0.98,0.09,1.92-0.04,2.85-0.27c1.27-0.31,2.3-0.93,3.02-1.97c0.13-0.19,0.38-0.27,0.61-0.19
		c0.2,0.07,0.41,0.09,0.5-0.14c0.09-0.21,0-0.39-0.19-0.51c-0.06-0.04-0.14-0.06-0.2-0.1c-0.24-0.13-0.37-0.32-0.3-0.58
		c0.03-0.13,0.09-0.25,0.27-0.22c0.28,0.05,0.5,0.17,0.57,0.46c0.04,0.18,0.09,0.35,0.15,0.52c0.06,0.17,0.18,0.29,0.38,0.26
		c0.22-0.03,0.25-0.2,0.23-0.37c-0.04-0.34-0.09-0.68-0.14-1.02c-0.05-0.36-0.25-0.59-0.64-0.67c-0.26-0.05-0.54-0.17-0.42-0.46
		c0.12-0.3,0.06-0.77,0.61-0.78c0.23,0,0.44-0.01,0.5-0.26c0.06-0.24-0.15-0.28-0.32-0.37c-0.18-0.1-0.32-0.25-0.49-0.38
		c-0.37-0.28-0.39-0.57-0.11-0.93c0.5-0.64,0.96-1.3,1.44-1.95c0.18-0.24,0.28-0.51,0.38-0.78c0.27-0.77-0.03-1.44-0.85-1.74
		c-0.56-0.2-0.77-0.51-0.9-1.09c-0.41-1.85-1.36-3.44-2.98-4.64c-0.56-0.41-1.16-0.75-1.82-0.98c-0.27-0.1-0.27-0.46,0.01-0.55
		l0.01,0c1.56-0.5,3.13-0.41,4.66,0.04c1.18,0.35,2.22,0.98,3.19,1.71c1.37,1.03,2.4,2.27,3.14,3.78
		C37.77,20.83,38.01,23.61,37.22,26.49z M30.79,20.67c0.78,0.16,0.91,0.63,0.06,1.43C30.74,21.59,30.47,21.15,30.79,20.67z"/>
	<path class="st1" d="M35.8,22.16c-0.6-0.36-1.2-0.54-1.93-0.65c-0.31-0.05-0.58-0.11-0.7,0.19c-0.14,0.34,0.21,0.37,0.47,0.49
		c0.61,0.26,1.22,0.42,1.76,0.73c0.26,0.15,0.62,0.35,0.82-0.03C36.4,22.55,36.11,22.35,35.8,22.16z"/>
	<path class="st1" d="M34.06,24.42c-0.61-0.09-1.01-0.45-1.27-0.85c-0.08-0.13-0.54-0.13-0.47,0.16c0.15,0.64,0.85,1.13,1.65,1.19
		c0.16,0.01,0.34,0.05,0.37-0.17C34.38,24.55,34.22,24.44,34.06,24.42z"/>
</g>
</svg>
