<?xml version="1.0" encoding="utf-8"?>
<!-- Generator: Adobe Adobe Illustrator 24.2.0, SVG Export Plug-In . SVG Version: 6.00 Build 0)  -->
<svg version="1.1" id="Layer_1" xmlns="http://www.w3.org/2000/svg" xmlns:xlink="http://www.w3.org/1999/xlink" x="0px" y="0px"
	 width="216px" height="216px" viewBox="0 0 216 216" style="enable-background:new 0 0 216 216;" xml:space="preserve">
<style type="text/css">
	.st0{fill:#FFFEF2;}
	.st1{fill:#3C3655;}
</style>
<g>
	<path class="st0" d="M143.5,65.88c-4.84-3.63-10.04-6.8-15.94-8.53c-7.65-2.26-15.5-2.68-23.29-0.19l-0.04,0.01
		c-1.39,0.45-1.4,2.26-0.03,2.74c3.31,1.18,6.32,2.86,9.1,4.91c8.1,5.97,12.85,13.97,14.92,23.19c0.65,2.91,1.73,4.43,4.51,5.45
		c4.1,1.5,5.61,4.81,4.26,8.68c-0.48,1.37-0.98,2.7-1.89,3.91c-2.43,3.22-4.72,6.54-7.21,9.73c-1.41,1.81-1.31,3.25,0.55,4.64
		c0.83,0.62,1.54,1.39,2.45,1.88c0.85,0.46,1.9,0.67,1.61,1.86c-0.3,1.24-1.36,1.27-2.5,1.3c-2.76,0.06-2.44,2.43-3.04,3.92
		c-0.58,1.44,0.83,2.04,2.12,2.31c1.97,0.41,2.97,1.55,3.21,3.35c0.23,1.69,0.47,3.39,0.68,5.09c0.11,0.87-0.04,1.7-1.15,1.86
		c-1.02,0.14-1.62-0.48-1.92-1.31c-0.3-0.85-0.55-1.73-0.76-2.6c-0.34-1.45-1.43-2.07-2.86-2.31c-0.88-0.15-1.18,0.46-1.33,1.11
		c-0.31,1.33,0.32,2.26,1.52,2.92c0.33,0.18,0.71,0.3,1.02,0.5c0.99,0.63,1.41,1.5,0.97,2.57c-0.47,1.13-1.52,1.04-2.52,0.7
		c-1.14-0.38-2.39,0.01-3.04,0.96c-3.57,5.23-8.76,8.32-15.09,9.86c-4.67,1.14-9.39,1.8-14.27,1.35l-0.09-0.01
		c-1.95-0.19-2.84,2.2-1.19,3.19c5.22,3.12,10.86,5.36,17.45,5.96c9.62,0.88,18.73-0.27,27-4.89c13.67-7.64,22.42-18.81,26.36-33.26
		c3.94-14.42,2.77-28.29-3.89-41.91C155.51,77.25,150.37,71.02,143.5,65.88z M157.89,108.71c-0.99,1.81-2.75,0.84-4.01,0.12
		c-2.65-1.5-4.89-2.56-8.61-3.54c-1.27-0.58-2.97-0.77-2.28-2.39c0.6-1.44,1.98-1.41,3.43-0.92c2.56,0.87,7.43,1.98,9.47,3.16
		C157.41,106.03,158.82,107.03,157.89,108.71z"/>
	<path class="st0" d="M130.96,97.58c-1.62,2.43-0.26,4.6,0.32,7.16C135.49,100.74,134.87,98.39,130.96,97.58z"/>
	<path class="st1" d="M189.1,106.42c-3.29-0.95-6.67-1.53-9.67-3.37c-7.21-4.43-8.66-14.55-1.55-19.7c1.52-1.1,3.13-2.09,4.8-2.99
		c1.21-0.65,1.64-1.51,1.31-2.68c-0.35-1.25-1.44-1.58-2.7-1.58c-2.41-0.01-4.87,0.39-7.24-0.03c-3.17-0.57-6.77-2.58-8.25-5.01
		c-1.72-2.85-1.35-5.31-0.57-8.01c1.1-3.79,2.65-6.66,4.48-9.79c0.71-1.21,1.73-2.72,0.11-3.91c-1.64-1.2-3.33-0.47-4.76,0.57
		c-2.53,1.85-5.45,3.03-8.33,4.24c-3.87,1.62-7.54,0.18-9.83-3.19c-3.05-4.48-2.32-9.72-3.76-14.52c-0.6-2.02-1.16-3.75-3.27-4.24
		c-1.9-0.44-3.05,1.08-4.11,2.42c-2.56,3.22-4.72,6.74-8.01,9.43c-2.78,2.27-5.72,1.86-7.77-0.88c-2.62-3.5-3.8-7.61-5.74-11.4
		c-1.08-2.11-1.91-3.93-4.82-3.75c-2.68,0.17-3.25,2.12-3.95,4c-1.45,3.89-2.09,7.09-3.69,10.92c-0.65,1.56-2.3,3.86-4.49,4.1
		c-2.05,0.23-3.14-0.88-4.2-2.31c-0.84-1.13-1.66-2.78-3.47-2.43c-3.69,0.71-1.96,17.05-14.55,9.53c-3.73-2.23-6.8-5.23-10.25-7.79
		c-0.99-0.73-1.97-1.11-3.16-0.44c-1.14,0.64-1.54,1.6-1.35,2.76c0.12,0.7,0.37,1.39,0.66,2.04c1.05,2.32,2.12,4.63,3.21,7
		c1.22,2.65,2.03,5.47,2.23,8.36c0.11,1.57,0.08,3.13-0.29,4.73c-1.09,4.78-5.29,8.92-10.38,9.95c-3.44,0.7-6.7-0.25-10.03-0.5
		c-1.48-0.11-3.11-0.31-3.81,1.09c-0.69,1.39,0.66,2.4,1.73,3.09c2.62,1.69,5.01,3.63,7.09,5.83c2.42,2.57,3.5,5.46,2.85,9.13
		c-1.92,10.85-17.39,13.39-20.25,15.4c-0.82,0.57-1.5,1.18-1.31,2.22c0.2,1.08,1.07,1.76,2.08,2.15c1.13,0.45,1.73,0.48,2.58,0.62
		c15.12,2.49,25.07,24.43,9.48,36.16c-1.12,0.84-2.99,1.95-1.65,3.78c1.12,1.53,2.82,1.26,4.45,0.67c1.79-0.65,3.52-1.51,5.39-1.93
		c12.66-2.82,22.17,9.66,17.25,22.18c-0.45,1.15-0.21,2.18,0.94,2.83c1.3,0.73,2.21-0.19,3.03-0.9c1.76-1.53,3.34-3.26,5.17-4.7
		c13.68-10.75,25.04,1.37,26.52,9.7c0.26,1.48,1.25,2.62,2.77,2.74c1.51,0.11,2.3-1.2,2.7-2.42c0.78-2.41,1.32-11.51,9.01-13.32
		c2.8-0.66,5.77,0.06,8.02,1.75c1.25,0.94,2.35,2.03,3.37,3.21c0.78,0.9,1.57,1.91,3.1,1.54c1.45-0.35,1.58-1.55,1.89-2.6
		c0.27-0.95,0.51-1.9,0.7-2.86c0.82-4.17,1.86-5.07,5.96-4.5c2.19,0.3,3.28-0.42,3.41-2.52c0.11-1.79,0.34-3.57,0.59-5.35
		c0.42-2.89,2.92-4.03,5.67-2.61c2.81,1.45,5.26,3.34,7.5,5.47c1.3,1.24,2.89,2.28,4.55,1.01c1.52-1.17,1-2.97,0.27-4.47
		c-0.88-1.78-2.07-3.44-2.9-5.24c-2.48-5.43-2.81-10.48,4.18-10.48c4.1,0,4.11-1.64,2.17-5.09c-0.37-0.65-0.79-1.31-0.32-2.02
		c0.58-0.87,1.57-0.62,2.37-0.48c1.33,0.22,2.63,0.58,4,0.45c2.38-0.22,3.1-1.36,1.89-3.25c-0.98-1.53-2.14-2.96-3.27-4.4
		c-4.48-5.74-1.91-12.73,3.99-15.46c3.27-1.52,6.82-1.84,10.2-2.81c1.43-0.41,2.92-0.86,2.9-2.54
		C191.99,107.34,190.54,106.84,189.1,106.42z M163.09,126.7c-3.95,14.45-12.7,25.61-26.36,33.26c-8.27,4.63-17.39,5.77-27,4.89
		c-6.58-0.6-12.23-2.84-17.45-5.96c-1.65-0.99-0.76-3.38,1.19-3.19l0.09,0.01c4.88,0.46,9.6-0.2,14.27-1.35
		c6.33-1.55,11.52-4.63,15.09-9.86c0.65-0.95,1.9-1.35,3.04-0.96c1,0.34,2.04,0.43,2.52-0.7c0.44-1.06,0.02-1.94-0.97-2.57
		c-0.32-0.2-0.69-0.32-1.02-0.5c-1.19-0.66-1.83-1.59-1.52-2.92c0.15-0.65,0.45-1.26,1.33-1.11c1.42,0.24,2.52,0.86,2.86,2.31
		c0.2,0.88,0.46,1.75,0.76,2.6c0.29,0.83,0.89,1.45,1.92,1.31c1.12-0.16,1.26-0.99,1.15-1.86c-0.21-1.7-0.45-3.39-0.68-5.09
		c-0.25-1.8-1.24-2.94-3.21-3.35c-1.29-0.26-2.7-0.87-2.12-2.31c0.6-1.49,0.28-3.86,3.04-3.92c1.14-0.02,2.2-0.06,2.5-1.3
		c0.29-1.19-0.75-1.41-1.61-1.86c-0.9-0.48-1.62-1.26-2.45-1.88c-1.85-1.38-1.96-2.83-0.55-4.64c2.49-3.19,4.78-6.5,7.21-9.73
		c0.91-1.2,1.41-2.53,1.89-3.91c1.35-3.86-0.16-7.18-4.26-8.68c-2.78-1.02-3.86-2.54-4.51-5.45c-2.06-9.23-6.82-17.22-14.92-23.19
		c-2.78-2.05-5.8-3.73-9.1-4.91c-1.37-0.49-1.36-2.3,0.03-2.74l0.04-0.01c7.79-2.49,15.63-2.06,23.29,0.19
		c5.9,1.74,11.09,4.91,15.94,8.53c6.87,5.14,12.01,11.37,15.69,18.92C165.85,98.41,167.03,112.29,163.09,126.7z M130.96,97.58
		c3.91,0.81,4.53,3.16,0.32,7.16C130.7,102.18,129.34,100.01,130.96,97.58z"/>
	<path class="st1" d="M156,105.07c-2.98-1.8-5.98-2.7-9.66-3.26c-1.55-0.24-2.88-0.53-3.5,0.95c-0.7,1.68,1.04,1.87,2.33,2.47
		c3.06,1.29,6.08,2.1,8.79,3.65c1.28,0.74,3.08,1.74,4.09-0.13C158.99,107.01,157.54,106,156,105.07z"/>
	<path class="st1" d="M147.32,116.33c-3.03-0.46-5.03-2.24-6.34-4.25c-0.42-0.64-2.69-0.63-2.37,0.8c0.73,3.2,4.24,5.66,8.27,5.94
		c0.79,0.05,1.7,0.26,1.86-0.85C148.88,116.98,148.11,116.45,147.32,116.33z"/>
</g>
</svg>
