<?xml version="1.0" encoding="utf-8"?>
<!-- Generator: Adobe Adobe Illustrator 24.2.0, SVG Export Plug-In . SVG Version: 6.00 Build 0)  -->
<svg version="1.1" id="Layer_1" xmlns="http://www.w3.org/2000/svg" xmlns:xlink="http://www.w3.org/1999/xlink" x="0px" y="0px"
	 width="640px" height="480px" viewBox="0 0 640 480" style="enable-background:new 0 0 640 480;" xml:space="preserve">
<style type="text/css">
	.st0{fill:#FFFEF2;}
	.st1{fill:#3C3655;}
</style>
<g>
	<path class="st0" d="M352.57,207.3c-4.84-3.89-10.04-7.29-15.94-9.15c-7.65-2.42-15.5-2.88-23.29-0.2l-0.04,0.01
		c-1.39,0.48-1.4,2.42-0.03,2.94c3.31,1.26,6.32,3.07,9.1,5.26c8.1,6.4,12.85,14.97,14.92,24.86c0.65,3.12,1.73,4.75,4.51,5.84
		c4.1,1.61,5.61,5.16,4.26,9.3c-0.48,1.47-0.98,2.9-1.89,4.19c-2.43,3.46-4.72,7.01-7.21,10.43c-1.41,1.94-1.31,3.49,0.55,4.97
		c0.83,0.66,1.54,1.5,2.45,2.01c0.85,0.49,1.9,0.72,1.61,2c-0.3,1.33-1.36,1.36-2.5,1.39c-2.76,0.06-2.44,2.61-3.04,4.2
		c-0.58,1.55,0.83,2.19,2.12,2.47c1.97,0.43,2.97,1.66,3.21,3.59c0.23,1.82,0.47,3.63,0.68,5.45c0.11,0.93-0.04,1.82-1.15,1.99
		c-1.02,0.15-1.62-0.51-1.92-1.41c-0.3-0.91-0.55-1.85-0.76-2.79c-0.34-1.55-1.43-2.22-2.86-2.47c-0.88-0.16-1.18,0.5-1.33,1.19
		c-0.31,1.43,0.32,2.43,1.52,3.13c0.33,0.2,0.71,0.32,1.02,0.54c0.99,0.67,1.41,1.61,0.97,2.75c-0.47,1.22-1.52,1.11-2.52,0.75
		c-1.14-0.41-2.39,0.01-3.04,1.03c-3.57,5.61-8.76,8.92-15.09,10.57c-4.67,1.22-9.39,1.93-14.27,1.44l-0.09-0.01
		c-1.95-0.2-2.84,2.36-1.19,3.42c5.22,3.34,10.86,5.74,17.45,6.39c9.62,0.94,18.73-0.28,27-5.24c13.67-8.19,22.42-20.16,26.36-35.66
		c3.94-15.46,2.77-30.33-3.89-44.93C364.58,219.5,359.44,212.82,352.57,207.3z M366.96,253.23c-0.99,1.94-2.75,0.9-4.01,0.13
		c-2.65-1.61-4.89-2.75-8.61-3.79c-1.27-0.62-2.97-0.82-2.28-2.56c0.6-1.54,1.98-1.52,3.43-0.99c2.56,0.94,7.43,2.13,9.47,3.39
		C366.47,250.35,367.88,251.42,366.96,253.23z"/>
	<path class="st0" d="M340.02,241.3c-1.62,2.61-0.26,4.93,0.32,7.68C344.55,244.68,343.93,242.17,340.02,241.3z"/>
	<path class="st1" d="M398.17,250.77c-3.29-1.02-6.67-1.64-9.67-3.61c-7.21-4.75-8.66-15.6-1.55-21.12c1.52-1.18,3.13-2.25,4.8-3.21
		c1.21-0.7,1.64-1.62,1.31-2.87c-0.35-1.34-1.44-1.7-2.7-1.7c-2.41-0.01-4.87,0.42-7.24-0.04c-3.17-0.61-6.77-2.76-8.25-5.37
		c-1.72-3.05-1.35-5.69-0.57-8.58c1.1-4.06,2.65-7.14,4.48-10.5c0.71-1.3,1.73-2.91,0.11-4.19c-1.64-1.29-3.33-0.5-4.76,0.61
		c-2.53,1.98-5.45,3.25-8.33,4.54c-3.87,1.74-7.54,0.19-9.83-3.42c-3.05-4.81-2.32-10.42-3.76-15.57c-0.6-2.16-1.16-4.02-3.27-4.55
		c-1.9-0.47-3.05,1.16-4.11,2.6c-2.56,3.45-4.72,7.23-8.01,10.1c-2.78,2.43-5.72,2-7.77-0.94c-2.62-3.76-3.8-8.16-5.74-12.22
		c-1.08-2.26-1.91-4.21-4.82-4.02c-2.68,0.18-3.25,2.27-3.95,4.28c-1.45,4.17-2.09,7.6-3.69,11.71c-0.65,1.67-2.3,4.13-4.49,4.39
		c-2.05,0.24-3.14-0.95-4.2-2.47c-0.84-1.21-1.66-2.98-3.47-2.6c-3.69,0.77-1.96,18.28-14.55,10.21c-3.73-2.39-6.8-5.61-10.25-8.35
		c-0.99-0.79-1.97-1.19-3.16-0.47c-1.14,0.68-1.54,1.72-1.35,2.96c0.11,0.75,0.37,1.49,0.66,2.19c1.05,2.48,2.12,4.96,3.21,7.5
		c1.22,2.84,2.03,5.87,2.23,8.96c0.11,1.69,0.08,3.36-0.29,5.07c-1.09,5.12-5.29,9.56-10.38,10.67c-3.44,0.75-6.7-0.27-10.03-0.54
		c-1.48-0.12-3.11-0.33-3.81,1.17c-0.69,1.49,0.66,2.57,1.73,3.31c2.62,1.81,5.01,3.89,7.09,6.26c2.42,2.75,3.5,5.86,2.85,9.79
		c-1.92,11.63-17.39,14.35-20.25,16.51c-0.82,0.61-1.5,1.27-1.31,2.38c0.2,1.16,1.07,1.89,2.08,2.31c1.13,0.48,1.73,0.52,2.58,0.67
		c15.12,2.67,25.07,26.2,9.48,38.77c-1.12,0.9-2.99,2.09-1.65,4.05c1.12,1.64,2.82,1.35,4.45,0.71c1.79-0.7,3.52-1.62,5.39-2.06
		c12.66-3.03,22.17,10.36,17.25,23.77c-0.45,1.24-0.21,2.34,0.94,3.03c1.3,0.78,2.21-0.2,3.03-0.97c1.76-1.64,3.34-3.49,5.17-5.04
		c13.68-11.53,25.04,1.47,26.52,10.4c0.26,1.59,1.25,2.81,2.77,2.93c1.51,0.12,2.3-1.28,2.7-2.6c0.78-2.58,1.32-12.34,9.01-14.28
		c2.8-0.71,5.77,0.06,8.02,1.88c1.25,1.01,2.35,2.18,3.37,3.44c0.78,0.97,1.57,2.04,3.1,1.65c1.45-0.38,1.58-1.66,1.89-2.79
		c0.27-1.01,0.51-2.04,0.7-3.07c0.82-4.47,1.86-5.43,5.96-4.82c2.19,0.33,3.28-0.45,3.41-2.7c0.11-1.92,0.34-3.83,0.59-5.73
		c0.42-3.1,2.92-4.33,5.67-2.8c2.81,1.55,5.26,3.58,7.5,5.87c1.3,1.33,2.89,2.45,4.55,1.08c1.52-1.26,1-3.19,0.27-4.79
		c-0.88-1.91-2.07-3.69-2.9-5.62c-2.48-5.82-2.81-11.24,4.18-11.24c4.1,0,4.11-1.76,2.17-5.46c-0.37-0.7-0.79-1.4-0.32-2.16
		c0.58-0.93,1.57-0.66,2.37-0.52c1.33,0.24,2.63,0.63,4,0.49c2.38-0.24,3.1-1.46,1.89-3.48c-0.98-1.64-2.14-3.18-3.27-4.72
		c-4.48-6.15-1.91-13.64,3.99-16.58c3.27-1.63,6.82-1.97,10.2-3.01c1.43-0.44,2.92-0.92,2.9-2.72
		C401.05,251.75,399.61,251.22,398.17,250.77z M372.15,272.52c-3.95,15.49-12.7,27.46-26.36,35.66c-8.27,4.96-17.39,6.19-27,5.24
		c-6.58-0.64-12.23-3.04-17.45-6.39c-1.65-1.06-0.76-3.62,1.19-3.42l0.09,0.01c4.88,0.49,9.6-0.22,14.27-1.44
		c6.33-1.66,11.52-4.96,15.09-10.57c0.65-1.02,1.9-1.45,3.04-1.03c1,0.36,2.04,0.46,2.52-0.75c0.44-1.14,0.02-2.08-0.97-2.75
		c-0.32-0.21-0.69-0.34-1.02-0.54c-1.19-0.71-1.83-1.71-1.52-3.13c0.15-0.7,0.45-1.35,1.33-1.19c1.42,0.25,2.52,0.92,2.86,2.47
		c0.2,0.94,0.46,1.88,0.76,2.79c0.29,0.89,0.89,1.56,1.92,1.41c1.12-0.17,1.26-1.06,1.15-1.99c-0.21-1.82-0.45-3.64-0.68-5.45
		c-0.25-1.93-1.24-3.15-3.21-3.59c-1.29-0.28-2.7-0.93-2.12-2.47c0.6-1.6,0.28-4.14,3.04-4.2c1.14-0.03,2.2-0.06,2.5-1.39
		c0.29-1.28-0.75-1.51-1.61-2c-0.9-0.52-1.62-1.35-2.45-2.01c-1.85-1.48-1.96-3.03-0.55-4.97c2.49-3.42,4.78-6.97,7.21-10.43
		c0.91-1.29,1.41-2.72,1.89-4.19c1.35-4.14-0.16-7.69-4.26-9.3c-2.78-1.09-3.86-2.72-4.51-5.84c-2.06-9.89-6.82-18.46-14.92-24.86
		c-2.78-2.2-5.8-4-9.1-5.26c-1.37-0.52-1.36-2.46,0.03-2.94l0.04-0.01c7.79-2.67,15.63-2.21,23.29,0.2
		c5.9,1.86,11.09,5.26,15.94,9.15c6.87,5.51,12.01,12.19,15.69,20.28C374.92,242.19,376.09,257.06,372.15,272.52z M340.02,241.3
		c3.91,0.87,4.53,3.39,0.32,7.68C339.76,246.22,338.4,243.9,340.02,241.3z"/>
	<path class="st1" d="M365.07,249.32c-2.98-1.93-5.98-2.9-9.66-3.5c-1.55-0.25-2.88-0.57-3.5,1.02c-0.7,1.8,1.04,2.01,2.33,2.65
		c3.06,1.38,6.08,2.25,8.79,3.92c1.28,0.79,3.08,1.87,4.09-0.13C368.05,251.41,366.6,250.32,365.07,249.32z"/>
	<path class="st1" d="M356.38,261.4c-3.03-0.49-5.03-2.4-6.34-4.56c-0.42-0.68-2.69-0.67-2.37,0.86c0.73,3.43,4.24,6.07,8.27,6.36
		c0.79,0.06,1.7,0.27,1.86-0.91C357.95,262.1,357.17,261.52,356.38,261.4z"/>
</g>
</svg>
